PathFileType	4	(X/Y/Z)	E:/Marcel_BSc/Hannes_22_01_2025/22-01-2025/static_01_hjc.trc	
DataRate	CameraRate	NumFrames	NumMarkers	Units	OrigDataRate	OrigDataStartFrame	OrigNumFrames	
200.00	200.00	5	72	mm	200.00	435	497	
Frame#	Time	FHD			LBHD			RBHD			RBAR			LBAR			RASI			RSACR			LSACR			LASI			USACR			C7			CLAV			T10			RSHO			LSHO			LTHI1			LTHI3			LTHI2			LLFC			LMFC			LTIB1			LTIB2			LTIB3			LMMAL			LLMAL			LHEE			LMT1			LMT5			LMT3			RTHI1			RTHI2			RTHI3			RLFC			RMFC			RTIB1			RTIB3			RTIB2			RLMAL			RMMAL			RHEE			RMT5			RMT1			RMT3			LMEP			LLEP			LDUPA			LMUPA			LUUPA			LUL			LRAD			LRFIN			RUL			RRAD			RUFIN			RMEP			RLEP			RMUPA			RDUPA			RUUPA			*59			*60			*61			*62			*63			*64			*65			RAJC			LAJC			LKJC			RKJC			LHJC			RHJC			
		X1	Y1	Z1	X2	Y2	Z2	X3	Y3	Z3	X4	Y4	Z4	X5	Y5	Z5	X6	Y6	Z6	X7	Y7	Z7	X8	Y8	Z8	X9	Y9	Z9	X10	Y10	Z10	X11	Y11	Z11	X12	Y12	Z12	X13	Y13	Z13	X14	Y14	Z14	X15	Y15	Z15	X16	Y16	Z16	X17	Y17	Z17	X18	Y18	Z18	X19	Y19	Z19	X20	Y20	Z20	X21	Y21	Z21	X22	Y22	Z22	X23	Y23	Z23	X24	Y24	Z24	X25	Y25	Z25	X26	Y26	Z26	X27	Y27	Z27	X28	Y28	Z28	X29	Y29	Z29	X30	Y30	Z30	X31	Y31	Z31	X32	Y32	Z32	X33	Y33	Z33	X34	Y34	Z34	X35	Y35	Z35	X36	Y36	Z36	X37	Y37	Z37	X38	Y38	Z38	X39	Y39	Z39	X40	Y40	Z40	X41	Y41	Z41	X42	Y42	Z42	X43	Y43	Z43	X44	Y44	Z44	X45	Y45	Z45	X46	Y46	Z46	X47	Y47	Z47	X48	Y48	Z48	X49	Y49	Z49	X50	Y50	Z50	X51	Y51	Z51	X52	Y52	Z52	X53	Y53	Z53	X54	Y54	Z54	X55	Y55	Z55	X56	Y56	Z56	X57	Y57	Z57	X58	Y58	Z58	X59	Y59	Z59	X60	Y60	Z60	X61	Y61	Z61	X62	Y62	Z62	X63	Y63	Z63	X64	Y64	Z64	X65	Y65	Z65	X66	Y66	Z66	X67	Y67	Z67	X68	Y68	Z68	X69	Y69	Z69	X70	Y70	Z70	X71	Y71	Z71	X72	Y72	Z72	

435	2.170	63.24423	1224.33582	1708.64221	147.47476	1123.12402	1680.52393	159.97183	1317.34961	1675.12683	-530.28662	2111.32178	25.80034	-499.42059	-112.27454	36.28647	110.82523	1330.00879	987.99194	303.21054	1255.96887	1050.25562	303.63620	1148.58484	1055.56567	116.75057	1061.03369	995.15967	304.21460	1201.56604	1074.65112	292.41592	1209.06140	1493.69043	122.17074	1209.30774	1449.46484	294.02087	1202.18311	1171.15247	272.06500	1368.57092	1484.64343	270.02170	1048.49548	1492.74890	212.77600	982.80933	792.05054	233.94907	982.18848	729.04938	183.87395	973.32916	732.06982	223.28111	998.60956	504.27905	206.68336	1106.55139	464.96005	269.22614	961.66418	267.91681	319.62173	966.61517	278.08948	306.00925	968.31744	214.12891	277.47739	1054.37378	86.25902	309.64819	965.99017	80.15527	354.49207	1015.29449	22.05922	142.83360	996.74731	40.01167	185.69753	915.65948	26.61036	149.05482	948.57770	30.11840	222.79869	1410.29248	782.07550	190.93912	1417.46497	724.29639	240.36615	1408.95068	717.78418	218.23888	1384.06116	494.66849	196.08463	1277.50610	477.44421	244.89342	1414.28516	277.41248	268.62506	1413.99060	215.67355	294.97394	1422.84180	274.31094	295.13214	1409.88647	79.94236	257.51721	1322.69873	83.34770	343.88858	1366.27942	30.21403	184.10760	1460.96741	27.37499	124.55277	1389.72546	36.01928	135.77510	1438.17493	28.37034	213.43982	771.40973	1358.91492	275.83362	764.07501	1449.46729	284.88550	830.85162	1442.78479	250.68060	889.71954	1484.53870	288.16602	892.13831	1451.55444	194.97156	522.13989	1482.77332	152.78294	536.78351	1503.38611	110.22113	436.40820	1493.90125	212.14537	1903.53479	1466.46143	168.11633	1885.13782	1489.79541	150.95233	1997.90588	1484.02917	230.65056	1640.52820	1350.82092	293.26965	1655.74988	1440.64783	308.64813	1550.55127	1426.99805	287.58005	1588.00098	1451.71436	288.04922	1511.30493	1471.66833	-536.25806	1937.58337	32.94672	-507.26923	-21.01246	39.50327	-516.66022	13.71790	49.13614													276.32468	1366.29260	81.64503	293.56279	1010.18198	83.20715	214.98224	1052.58047	484.61955	207.16175	1330.78363	486.05635	210.19339	1104.80927	1025.36267	207.01788	1292.98883	1019.12378 
436	2.175	63.20815	1224.30676	1708.63782	147.46509	1123.10864	1680.51099	159.96214	1317.33057	1675.13513	-530.46576	2110.99438	25.67872	-499.43091	-112.27830	36.28075	110.82159	1329.99402	987.98413	303.20804	1255.95923	1050.26758	303.64560	1148.58337	1055.56812	116.78808	1061.03735	995.15277	304.22717	1201.56909	1074.65076	292.42154	1209.05200	1493.68835	122.17623	1209.28589	1449.47034	294.02652	1202.18726	1171.15515	272.07129	1368.57935	1484.63550	270.00879	1048.48975	1492.74829	212.86443	982.86194	792.24664	233.97722	982.20306	729.05017	183.88701	973.32751	732.07379	223.26669	998.60907	504.27417	206.68689	1106.54688	464.96381	269.21368	961.65051	267.92419	319.62305	966.61273	278.08673	306.01459	968.32373	214.14915	277.48187	1054.37878	86.24973	309.65656	965.99133	80.15645	354.50000	1015.30670	22.05034	142.83023	996.75317	40.01154	185.69371	915.66272	26.61110	149.05971	948.58527	30.10956	222.81499	1410.30286	782.06592	190.94762	1417.46313	724.29407	240.38623	1408.93945	717.76880	218.24203	1384.04907	494.65695	196.08836	1277.50977	477.44827	244.87740	1414.26208	277.43472	268.63242	1413.99524	215.65611	294.97064	1422.82910	274.31680	295.13177	1409.88501	79.94820	257.50458	1322.69531	83.35104	343.87100	1366.31519	30.21099	184.11559	1460.96155	27.36645	124.54624	1389.72913	36.01592	135.77728	1438.17322	28.35862	213.44727	771.40747	1358.87805	275.82672	764.06592	1449.45471	284.89005	830.84467	1442.76135	250.68405	889.70935	1484.53027	288.17297	892.12988	1451.55347	194.94649	522.15082	1482.78064	152.76627	536.78931	1503.36829	110.19627	436.41342	1493.87390	212.11856	1903.52588	1466.45386	168.09367	1885.11890	1489.78516	150.91862	1997.90198	1484.00037	230.63631	1640.51611	1350.81091	293.25980	1655.74512	1440.64624	308.63989	1550.53857	1426.99182	287.56622	1587.97974	1451.72278	288.03909	1511.30017	1471.65283	-536.27045	1937.50183	32.89398				-517.16846	13.06543	49.65144													276.31818	1366.29016	81.64962	293.56921	1010.18506	83.20309	214.97679	1052.57797	484.61899	207.16520	1330.77942	486.05261	210.21684	1104.81036	1025.36044	207.01482	1292.97662	1019.12585 
437	2.180	63.21699	1224.28564	1708.61877	147.45786	1123.07849	1680.49939	159.96066	1317.30396	1675.13098	-530.26709	2111.31445	25.76450	-499.42191	-112.27003	36.27394	110.82129	1329.98975	987.99719	303.21805	1255.94580	1050.27185	303.65652	1148.57092	1055.56970	116.74501	1061.05505	995.16064	304.23193	1201.54834	1074.65442	292.41501	1209.03015	1493.69690	122.17947	1209.28357	1449.46008	294.02588	1202.19006	1171.14990	272.06238	1368.56506	1484.64563	270.00787	1048.47668	1492.73291	212.78520	982.81921	792.01428	233.96762	982.20636	729.07440	183.88191	973.33386	732.05933	223.26091	998.60925	504.28772	206.68675	1106.55029	464.95325	269.22485	961.66528	267.91110	319.62753	966.60126	278.09238	306.01358	968.30988	214.13953	277.47421	1054.37109	86.25719	309.64731	965.98700	80.15391	354.50751	1015.30823	22.05842	142.83980	996.74762	40.00986	185.69290	915.65106	26.61620	149.06224	948.57648	30.11748	222.82712	1410.29553	782.06793	190.95282	1417.47009	724.30566	240.40527	1408.95898	717.76556	218.24911	1384.06494	494.66599	196.08737	1277.51587	477.43622	244.92204	1414.37769	277.42587	268.63266	1413.98999	215.65813	294.97781	1422.83582	274.32159	295.13956	1409.89526	79.93867	257.51141	1322.69360	83.34234	343.86319	1366.33728	30.17947	184.10693	1460.95801	27.35866	124.54332	1389.72058	36.01482	135.78076	1438.16516	28.35042	213.46529	771.40643	1358.85229	275.83740	764.05450	1449.44849	284.90100	830.82892	1442.74023	250.68803	889.71307	1484.51611	288.17404	892.12738	1451.54346	194.92319	522.14343	1482.76233	152.75104	536.79077	1503.35107	110.17216	436.40860	1493.85291	212.06862	1903.45313	1466.47632	168.05382	1885.11389	1489.76721	150.87032	1997.89380	1484.00012	230.60484	1640.52173	1350.78528	293.24649	1655.73047	1440.64624	308.63373	1550.53101	1426.99255	287.57666	1587.98755	1451.70764	288.03082	1511.28882	1471.64343	-536.23462	1937.41565	33.00295	-507.06787	-21.12149	39.49915																276.32549	1366.29443	81.64051	293.56076	1010.17905	83.20555	214.97383	1052.57977	484.62048	207.16824	1330.79041	486.05110	210.20077	1104.81299	1025.36517	207.01967	1292.96777	1019.13452 
438	2.185	63.22699	1224.28748	1708.59827	147.45490	1123.04712	1680.49219	159.94138	1317.28394	1675.15295	-530.20935	2111.46265	25.82389	-499.42316	-112.27641	36.27586	110.84284	1330.01367	987.99774	303.22659	1255.94299	1050.25476	303.66516	1148.57129	1055.57153	116.78725	1061.04407	995.14392	304.23761	1201.54187	1074.64783	292.42221	1209.02527	1493.70569	122.18959	1209.27820	1449.43982	294.04187	1202.18567	1171.13562	272.05460	1368.55835	1484.65076	270.01907	1048.47107	1492.70862	212.79936	982.80682	792.01630	233.95934	982.20819	729.04694	183.89369	973.34113	732.05566	223.30029	998.60834	504.27817	206.70425	1106.55042	464.95209	269.22131	961.66559	267.89941	319.63055	966.59967	278.07974	306.01474	968.30524	214.13359	277.47986	1054.36438	86.25652	309.65125	965.98315	80.15534	354.50674	1015.29456	22.04649	142.84299	996.74445	39.99538	185.68886	915.66089	26.60791	149.07826	948.58392	30.09841	222.83865	1410.29700	782.07709	190.96925	1417.47668	724.30017	240.41917	1408.95422	717.78564	218.24811	1384.05493	494.66693	196.09480	1277.51831	477.43829	244.82463	1414.09082	277.65283	268.62970	1414.00403	215.67181	294.97595	1422.84045	274.31549	295.13971	1409.89087	79.95148	257.50830	1322.70361	83.33266	343.87662	1366.30066	30.18657	184.12230	1460.96265	27.36466	124.55324	1389.71997	36.01599	135.78064	1438.16821	28.35498	213.47847	771.39050	1358.83972	275.83795	764.04749	1449.44495	284.88205	830.82294	1442.72473	250.69501	889.70386	1484.50696	288.18185	892.12616	1451.52478	194.91884	522.14606	1482.73547	152.73949	536.78033	1503.34094	110.14586	436.41299	1493.82690	212.03838	1903.43188	1466.47107	168.03046	1885.12146	1489.74670	150.81844	1997.87012	1483.99792	230.63751	1640.52283	1350.78223	293.23703	1655.73376	1440.65247	308.62769	1550.53394	1426.98743	287.56863	1587.97571	1451.71423	288.02051	1511.28052	1471.63379	-543.81299	1948.59143	27.58240	-507.09915	-21.15409	39.50489																276.32401	1366.29724	81.64207	293.56555	1010.17377	83.20593	215.00227	1052.57938	484.61513	207.17146	1330.78662	486.05261	210.22621	1104.80768	1025.35773	207.03472	1292.97833	1019.12625 
439	2.190	63.22952	1224.26929	1708.58020	147.43214	1123.02710	1680.47363	159.93056	1317.25171	1675.16431	-530.18756	2111.55078	25.86327	-499.41464	-112.26688	36.26522	110.84018	1330.00525	988.00507	303.23825	1255.93872	1050.25208	303.67102	1148.57068	1055.57178	116.77836	1061.05115	995.14014	304.24231	1201.53711	1074.63916	292.41159	1209.01257	1493.70630	122.19143	1209.27405	1449.41492	294.04401	1202.18274	1171.13684	272.04514	1368.54639	1484.65417	270.01956	1048.45935	1492.68555	212.79910	982.80725	792.01306	233.97406	982.21399	729.03589	183.90744	973.33325	732.05035	223.30408	998.61053	504.25027	206.71500	1106.55554	464.96017	269.25043	961.67737	267.90344	319.63913	966.60461	278.05334	306.03201	968.31836	214.12311	277.49243	1054.36841	86.25112	309.66418	965.98853	80.13702	354.49442	1015.28632	22.03150	142.84045	996.74835	40.00238	185.69336	915.64984	26.60225	149.07562	948.58289	30.08825	222.85194	1410.30432	782.07825	190.98483	1417.47791	724.31848	240.41994	1408.95227	717.80261	218.25259	1384.05371	494.67215	196.09818	1277.52405	477.44324	244.91949	1414.36108	277.41562	268.64514	1413.99487	215.66548	294.97556	1422.84290	274.33954	295.13165	1409.90063	79.95949	257.51395	1322.69434	83.32968	343.85236	1366.35571	30.19111	184.11395	1460.95984	27.37524	124.54663	1389.72144	36.00921	135.77097	1438.16675	28.36495	213.49815	771.38782	1358.81641	275.83344	764.02771	1449.42786	284.89868	830.81342	1442.71521	250.69563	889.70044	1484.49365	288.18121	892.10657	1451.50537	194.90018	522.11688	1482.71582	152.72586	536.78058	1503.30872	110.12611	436.40479	1493.79822	211.97305	1903.40015	1466.48523	167.99113	1885.08020	1489.74023	150.75487	1997.85120	1483.99695	230.62628	1640.52393	1350.76929	293.22678	1655.72156	1440.64612	308.62152	1550.52271	1426.98230	287.56119	1587.95862	1451.69971	288.01718	1511.27502	1471.63306	-536.16541	1937.36023	32.80200																			276.32280	1366.29749	81.64458	293.57831	1010.17847	83.19407	215.00954	1052.58304	484.60522	207.17538	1330.78888	486.05769	210.22469	1104.81091	1025.35596	207.03922	1292.97198	1019.12857 
